<?xml version="1.0" encoding="utf-8"?>
<!-- Generator: Adobe Illustrator 26.1.0, SVG Export Plug-In . SVG Version: 6.00 Build 0)  -->
<svg version="1.1" id="图层_1" xmlns="http://www.w3.org/2000/svg" xmlns:xlink="http://www.w3.org/1999/xlink" x="0px" y="0px"
	 width="1548px" height="1210px" viewBox="0 0 1548 1210" style="enable-background:new 0 0 1548 1210;" xml:space="preserve">
<style type="text/css">
	
		.st0{fill-rule:evenodd;clip-rule:evenodd;fill:#FFFFFF;stroke:#000000;stroke-width:4;stroke-linecap:round;stroke-linejoin:round;}
	
		.st1{fill-rule:evenodd;clip-rule:evenodd;fill:#FFB57E;stroke:#000000;stroke-width:4;stroke-linecap:round;stroke-linejoin:round;}
	
		.st2{fill-rule:evenodd;clip-rule:evenodd;fill:#FF7E7E;stroke:#000000;stroke-width:4;stroke-linecap:round;stroke-linejoin:round;}
	
		.st3{fill-rule:evenodd;clip-rule:evenodd;fill:#FFE57E;stroke:#000000;stroke-width:4;stroke-linecap:round;stroke-linejoin:round;}
	
		.st4{fill-rule:evenodd;clip-rule:evenodd;fill:#88AEFF;stroke:#000000;stroke-width:4;stroke-linecap:round;stroke-linejoin:round;}
	
		.st5{fill-rule:evenodd;clip-rule:evenodd;fill:#A8FFBE;stroke:#000000;stroke-width:4;stroke-linecap:round;stroke-linejoin:round;}
	.st6{fill:#111111;}
	.st7{font-family:'Tensentype-JiaLiDaYuanJF';}
	.st8{font-size:30px;}
	.st9{font-size:60px;}
</style>
<g id="地区">
    <path id="黑龙江" d="M1308,150 1308,308 1102,308 1102,150z"/>
    <path id="甘肃" d="M793,308 793,679 559,679 559,308z"/>
    <path id="吉林" d="M1102,308 1102,393 1308,393 1308,308z"/>
    <path id="内蒙古" d="M1102,150 946,150 946,308 707,308 707,535 934,535 1102,427z"/>
    <path id="山东" d="M987,563 987,655 1126,655 1126,563z"/>
    <path id="河北" d="M1069,427H934v180h117v-95h18V427z"/>
    <rect id="北京" x="971" y="453" width="80" height="52"/>
    <path id="天津" d="M971,505 1051,505 1051,548 971,548z"/>
    <path id="西藏" d="M597,887 243,887 243,583 597,583z"/>
    <path id="新疆" d="M243,583 243,204 559,204 559,583z"/>
    <path id="河南" d="M987,607 862,607 862,724 987,724z"/>
    <path id="安徽" d="M1060,655 987,655 987,793 1060,793z"/>
    <path id="山西" d="M862,535 862,643 934,643 934,535z"/>
    <path id="湖北" d="M987,805 987,724 862,724 862,805z"/>
    <path id="青海" d="M650,743 650,512 436,512 436,743z"/>
    <path id="辽宁" d="M1069,393 1069,512 1223,512 1223,393z"/>
    <path id="广东" d="M1031,905 887,905 887,986 1031,986z"/>
    <path id="江苏" d="M1107,655 1107,742 1045,742 1045,655z"/>
    <path id="江西" d="M1060,923 1060,793 957,793 957,923z"/>
    <path id="浙江" d="M1060,742 1134,743 1134,850 1060,850z"/>
    <path id="福建" d="M1031,850 1031,957 1104,957 1104,850z"/>
    <rect id="上海" x="1090" y="719" width="72" height="47"/>
    <path id="陕西" d="M793,770 862,770 862,535 793,535z"/>
    <path id="湖南" d="M862,805 957,805 957,905 862,905z"/>
    <path id="广西" d="M887,905 745,905 745,986 887,986z"/>
    <rect id="香港" x="966" y="973" width="42" height="33"/>
    <rect id="澳门" x="909" y="973" width="45" height="33"/>
    <path id="贵州" d="M862,826 745,826 745,905 862,905z"/>
    <rect id="重庆" x="773" y="770" width="89" height="56"/>
    <path id="四川" d="M773,854 773,770 793,770 793,679 597,679 597,854z"/>
    <path id="云南" d="M745,854 597,854 597,969 745,969z"/>
    <path id="宁夏" d="M793,535 707,535 707,631 793,631z"/>
    <rect id="台湾" x="1126" y="905" width="45" height="87"/>
    <rect id="海南" x="823" y="1014" width="78" height="46"/>
</g>
<g id="地名">
	<text transform="matrix(1 0 0 1 867 383)" class="st6 st7 st8">内蒙古</text>
	<text transform="matrix(1 0 0 1 1159 240)" class="st6 st7 st8">黑龙江</text>
	<text transform="matrix(1 0 0 1 1174 359)" class="st6 st7 st8">吉林</text>
	<text transform="matrix(1 0 0 1 1114 464)" class="st6 st7 st8">辽宁</text>
	<text transform="matrix(1 0 0 1 979 488)" class="st6 st7 st8">北京</text>
	<text transform="matrix(1 0 0 1 979 536)" class="st6 st7 st8">天津</text>
	<text transform="matrix(1 0 0 1 959 586)" class="st6 st7 st8">河北</text>
	<text transform="matrix(1 0 0 1 1069 605)" class="st6 st7 st8">山</text>
	<text transform="matrix(1 0 0 1 1069 635)" class="st6 st7 st8">东</text>
	<text transform="matrix(1 0 0 1 893 696)" class="st6 st7 st8">河南</text>
	<text transform="matrix(1 0 0 1 892 775)" class="st6 st7 st8">湖北</text>
	<text transform="matrix(1 0 0 1 892 852)" class="st6 st7 st8">湖</text>
	<text transform="matrix(1 0 0 1 892 882)" class="st6 st7 st8">南</text>
	<text transform="matrix(1 0 0 1 1054 692)" class="st6 st7 st8">江</text>
	<text transform="matrix(1 0 0 1 1054 722)" class="st6 st7 st8">苏</text>
	<text transform="matrix(1 0 0 1 1093 752)" class="st6 st7 st8">上海</text>
	<text transform="matrix(1 0 0 1 1080 802)" class="st6 st7 st8">浙</text>
	<text transform="matrix(1 0 0 1 1080 832)" class="st6 st7 st8">江</text>
	<text transform="matrix(1 0 0 1 1049 901)" class="st6 st7 st8">福</text>
	<text transform="matrix(1 0 0 1 1049 931)" class="st6 st7 st8">建</text>
	<text transform="matrix(1 0 0 1 1131 943)" class="st6 st7 st8">台</text>
	<text transform="matrix(1 0 0 1 1131 973)" class="st6 st7 st8">湾</text>
	<text transform="matrix(1 0 0 1 830 1047)" class="st6 st7 st8">海南</text>
	<text transform="matrix(1 0 0 1 927 959)" class="st6 st7 st8">广东</text>
	<text transform="matrix(1 0 0 1 980 853)" class="st6 st7 st8">江</text>
	<text transform="matrix(1 0 0 1 980 883)" class="st6 st7 st8">西</text>
	<text transform="matrix(1 0 0 1 1001 720)" class="st6 st7 st8">安</text>
	<text transform="matrix(1 0 0 1 1001 750)" class="st6 st7 st8">徽</text>
	<text transform="matrix(1 0 0 1 881 583)" class="st6 st7 st8">山</text>
	<text transform="matrix(1 0 0 1 881 613)" class="st6 st7 st8">西</text>
	<text transform="matrix(1 0 0 1 810 653)" class="st6 st7 st8">陕</text>
	<text transform="matrix(1 0 0 1 810 683)" class="st6 st7 st8">西</text>
	<text transform="matrix(1 0 0 1 733 577)" class="st6 st7 st8">宁</text>
	<text transform="matrix(1 0 0 1 733 607)" class="st6 st7 st8">夏</text>
	<text transform="matrix(1 0 0 1 617 421)" class="st6 st7 st8">甘</text>
	<text transform="matrix(1 0 0 1 617 451)" class="st6 st7 st8">肃</text>
	<text transform="matrix(1 0 0 1 509 637)" class="st6 st7 st8">青海</text>
	<text transform="matrix(1 0 0 1 661 777)" class="st6 st7 st8">四川</text>
	<text transform="matrix(1 0 0 1 640 922)" class="st6 st7 st8">云南</text>
	<text transform="matrix(1 0 0 1 783 956)" class="st6 st7 st8">广西</text>
	<text transform="matrix(1 0 0 1 774 876)" class="st6 st7 st8">贵州</text>
	<text transform="matrix(1 0 0 1 785 808)" class="st6 st7 st8">重庆</text>
	<text transform="matrix(1 0 0 1 312 756)" class="st6 st7 st8">西藏</text>
	<text transform="matrix(1 0 0 1 371 405)" class="st6 st7 st8">新疆</text>
</g>
<text transform="matrix(1 0 0 1 632.9963 236.0002)" class="st6 st7 st9">中国制霸</text>
</svg>
