<?xml version="1.0" encoding="utf-8"?>
<!-- Generator: Adobe Illustrator 26.1.0, SVG Export Plug-In . SVG Version: 6.00 Build 0)  -->
<svg version="1.1" id="图层_1" xmlns="http://www.w3.org/2000/svg" xmlns:xlink="http://www.w3.org/1999/xlink" x="0px" y="0px"
	 width="1548px" height="1210px" viewBox="0 0 1548 1210" style="enable-background:new 0 0 1548 1210;" xml:space="preserve">
<style type="text/css">
	
		.st0{fill-rule:evenodd;clip-rule:evenodd;fill:#FFFFFF;stroke:#000000;stroke-width:4;stroke-linecap:round;stroke-linejoin:round;}
	
		.st1{fill-rule:evenodd;clip-rule:evenodd;fill:#FFB57E;stroke:#000000;stroke-width:4;stroke-linecap:round;stroke-linejoin:round;}
	
		.st2{fill-rule:evenodd;clip-rule:evenodd;fill:#FF7E7E;stroke:#000000;stroke-width:4;stroke-linecap:round;stroke-linejoin:round;}
	
		.st3{fill-rule:evenodd;clip-rule:evenodd;fill:#FFE57E;stroke:#000000;stroke-width:4;stroke-linecap:round;stroke-linejoin:round;}
	
		.st4{fill-rule:evenodd;clip-rule:evenodd;fill:#88AEFF;stroke:#000000;stroke-width:4;stroke-linecap:round;stroke-linejoin:round;}
	
		.st5{fill-rule:evenodd;clip-rule:evenodd;fill:#A8FFBE;stroke:#000000;stroke-width:4;stroke-linecap:round;stroke-linejoin:round;}
	.st6{fill:#111111;}
	.st7{font-family:'Tensentype-JiaLiDaYuanJF';}
	.st8{font-size:30px;}
</style>
<g id="地区">
	<polygon id="黑龙江" class="st0" points="1306,150 1306,308 1100,308 1100,150 	"/>
	<polygon id="吉林" class="st1" points="1100,308 1100,393 1306,393 1306,308 	"/>
	<polygon id="辽宁" class="st2" points="1067,393 1067,512 1221,512 1221,393 	"/>
	<path id="河北" class="st0" d="M1067,427H932v180h117c0-59,0-59,0-59s0,0-80,0v-95h80v59h18V427z"/>
	<rect id="北京" x="969" y="453" class="st3" width="80" height="52"/>
	<polygon id="天津" class="st0" points="969,505 1049,505 1049,548 969,548 	"/>
	<polygon id="内蒙古" class="st1" points="1100,150 944,150 944,308 705,308 705,535 932,535 932,427 1067,427 1067,393 
		1100,393 	"/>
	<polygon id="山西" class="st0" points="860,535 860,643 932,643 932,535 	"/>
	<polygon id="山东" class="st4" points="1049,607 985,607 985,655 1124,655 1124,563 1049,563 	"/>
	<polygon id="江苏" class="st4" points="1105,655 1105,719 1088,719 1088,742 1043,742 1043,655 	"/>
	<polygon id="浙江" class="st4" points="1058,742 1088,742 1088,766 1132,766 1132,850 1058,850 	"/>
	<polygon id="福建" class="st1" points="1029,850 1029,957 1102,957 1102,850 	"/>
	<rect id="上海" x="1088" y="719" class="st2" width="72" height="47"/>
	<polygon id="安徽" class="st0" points="1058,742 1043,742 1043,655 985,655 985,793 1058,793 	"/>
	<polygon id="江西" class="st0" points="1029,850 1058,850 1058,793 955,793 955,923 1029,923 	"/>
	<polygon id="广东" class="st0" points="1029,923 955,923 955,905 885,905 885,986 907,986 907,973 952,973 952,986 964,986 
		964,973 1006,973 1006,986 1029,986 	"/>
	<polygon id="陕西" class="st0" points="791,770 860,770 860,535 791,535 	"/>
	<polygon id="河南" class="st5" points="985,607 932,607 932,643 860,643 860,724 985,724 	"/>
	<polygon id="湖南" class="st0" points="860,805 955,805 955,905 860,905 	"/>
	<polygon id="湖北" class="st0" points="955,793 985,793 985,724 860,724 860,805 955,805 	"/>
	<polygon id="广西" class="st0" points="885,905 743,905 743,986 885,986 	"/>
	<rect id="香港" x="964" y="973" class="st0" width="42" height="33"/>
	<rect id="澳门" x="907" y="973" class="st0" width="45" height="33"/>
	<polygon id="贵州" class="st0" points="860,826 771,826 771,854 743,854 743,905 860,905 	"/>
	<rect id="重庆" x="771" y="770" class="st1" width="89" height="56"/>
	<polygon id="四川" class="st1" points="771,854 771,770 791,770 791,679 595,679 595,854 	"/>
	<polygon id="云南" class="st0" points="743,854 595,854 595,969 743,969 	"/>
	<polygon id="宁夏" class="st0" points="791,535 705,535 705,631 791,631 	"/>
	<polygon id="甘肃" class="st0" points="705,631 791,631 791,679 648,679 648,512 557,512 557,308 705,308 	"/>
	<polygon id="青海" class="st0" points="595,679 648,679 648,512 434,512 434,743 595,743 	"/>
	<polygon id="西藏" class="st0" points="595,887 241,887 241,583 434,583 434,743 595,743 	"/>
	<polygon id="新疆" class="st0" points="241,583 241,204 557,204 557,512 434,512 434,583 	"/>
	<rect id="台湾" x="1124" y="905" class="st0" width="45" height="87"/>
	<rect id="海南" x="821" y="1014" class="st0" width="78" height="46"/>
</g>
<g id="地名">
	<text transform="matrix(1 0 0 1 867 383)" class="st6 st7 st8">内蒙古</text>
	<text transform="matrix(1 0 0 1 1159 240)" class="st6 st7 st8">黑龙江</text>
	<text transform="matrix(1 0 0 1 1174 359)" class="st6 st7 st8">吉林</text>
	<text transform="matrix(1 0 0 1 1114 464)" class="st6 st7 st8">辽宁</text>
	<text transform="matrix(1 0 0 1 979 488)" class="st6 st7 st8">北京</text>
	<text transform="matrix(1 0 0 1 979 536)" class="st6 st7 st8">天津</text>
	<text transform="matrix(1 0 0 1 959 586)" class="st6 st7 st8">河北</text>
	<text transform="matrix(1 0 0 1 1069 605)" class="st6 st7 st8">山</text>
	<text transform="matrix(1 0 0 1 1069 635)" class="st6 st7 st8">东</text>
	<text transform="matrix(1 0 0 1 893 696)" class="st6 st7 st8">河南</text>
	<text transform="matrix(1 0 0 1 892 775)" class="st6 st7 st8">湖北</text>
	<text transform="matrix(1 0 0 1 892 852)" class="st6 st7 st8">湖</text>
	<text transform="matrix(1 0 0 1 892 882)" class="st6 st7 st8">南</text>
	<text transform="matrix(1 0 0 1 1054 692)" class="st6 st7 st8">江</text>
	<text transform="matrix(1 0 0 1 1054 722)" class="st6 st7 st8">苏</text>
	<text transform="matrix(1 0 0 1 1093 752)" class="st6 st7 st8">上海</text>
	<text transform="matrix(1 0 0 1 1080 802)" class="st6 st7 st8">浙</text>
	<text transform="matrix(1 0 0 1 1080 832)" class="st6 st7 st8">江</text>
	<text transform="matrix(1 0 0 1 1049 901)" class="st6 st7 st8">福</text>
	<text transform="matrix(1 0 0 1 1049 931)" class="st6 st7 st8">建</text>
	<text transform="matrix(1 0 0 1 1131 943)" class="st6 st7 st8">台</text>
	<text transform="matrix(1 0 0 1 1131 973)" class="st6 st7 st8">湾</text>
	<text transform="matrix(1 0 0 1 830 1047)" class="st6 st7 st8">海南</text>
	<text transform="matrix(1 0 0 1 927 959)" class="st6 st7 st8">广东</text>
	<text transform="matrix(1 0 0 1 980 853)" class="st6 st7 st8">江</text>
	<text transform="matrix(1 0 0 1 980 883)" class="st6 st7 st8">西</text>
	<text transform="matrix(1 0 0 1 1001 720)" class="st6 st7 st8">安</text>
	<text transform="matrix(1 0 0 1 1001 750)" class="st6 st7 st8">徽</text>
	<text transform="matrix(1 0 0 1 881 583)" class="st6 st7 st8">山</text>
	<text transform="matrix(1 0 0 1 881 613)" class="st6 st7 st8">西</text>
	<text transform="matrix(1 0 0 1 810 653)" class="st6 st7 st8">陕</text>
	<text transform="matrix(1 0 0 1 810 683)" class="st6 st7 st8">西</text>
	<text transform="matrix(1 0 0 1 733 577)" class="st6 st7 st8">宁</text>
	<text transform="matrix(1 0 0 1 733 607)" class="st6 st7 st8">夏</text>
	<text transform="matrix(1 0 0 1 617 421)" class="st6 st7 st8">甘</text>
	<text transform="matrix(1 0 0 1 617 451)" class="st6 st7 st8">肃</text>
	<text transform="matrix(1 0 0 1 509 637)" class="st6 st7 st8">青海</text>
	<text transform="matrix(1 0 0 1 661 777)" class="st6 st7 st8">四川</text>
	<text transform="matrix(1 0 0 1 640 922)" class="st6 st7 st8">云南</text>
	<text transform="matrix(1 0 0 1 783 956)" class="st6 st7 st8">广西</text>
	<text transform="matrix(1 0 0 1 774 876)" class="st6 st7 st8">贵州</text>
	<text transform="matrix(1 0 0 1 785 808)" class="st6 st7 st8">重庆</text>
	<text transform="matrix(1 0 0 1 312 756)" class="st6 st7 st8">西藏</text>
	<text transform="matrix(1 0 0 1 371 405)" class="st6 st7 st8">新疆</text>
</g>
<script>console.log(this)</script>
</svg>
