<?xml version="1.0" encoding="utf-8"?>
<svg xmlns="http://www.w3.org/2000/svg" viewBox="0 0 1134 976">
<style></style>
<style>
text{
	font-family: 'Tensentype-JiaLiDaYuanJF',sans-serif;
	fill:#111;
	font-size:20px;
}
#标题,
#分数{font-size:60px;}
.fs24{font-size:24px;}
#地区 path,
#曾母暗沙,
.边框{
    fill-rule:evenodd;
    clip-rule:evenodd;
    stroke:#000;
    stroke-width:4;
    stroke-linecap:round;
    stroke-linejoin:round;
}
#地区 path{
    fill:#FFF;
    cursor: pointer;
    pointer-events: auto;
}
#曾母暗沙,
.边框{fill:none;}
#地区 path[level="5"]{fill:#FF7E7E;}
#地区 path[level="4"]{fill:#FFB57E;}
#地区 path[level="3"]{fill:#FFE57E;}
#地区 path[level="2"]{fill:#A8FFBE;}
#地区 path[level="1"]{fill:#88AEFF;}

	.st0{fill:#111111;}
	.st1{font-family:'Tensentype-JiaLiDaYuanJ';}
	.st2{font-size:48.7001px;}
	.st3{fill:#FFFFFF;stroke:#231815;stroke-width:4;stroke-miterlimit:10;}
	.st4{fill:#FF7E7E;}
	.st5{fill:#FFB57E;}
	.st6{fill:#FFE57E;}
	.st7{fill:#A8FFBE;}
	.st8{fill:#88AEFF;}
	.st9{fill:#FFFFFF;}
	.st10{fill:none;stroke:#000000;stroke-width:4;stroke-linecap:round;stroke-linejoin:round;}
	.st11{font-size:20px;}
	.st12{font-size:16px;}
	.st13{font-size:12px;}
	.st14{font-size:17px;}
	.st15{font-size:15px;}
	.st16{font-size:24px;}
	.st17{font-size:26px;}
	.st18{font-size:10px;}
	.st19{font-size:9px;}
	.st20{font-size:18px;}
	.st21{font-size:22px;}
	.st22{font-size:13px;}
	.st23{font-size:14px;}
	.st24{font-size:19px;}
</style>
<text id="标题" transform="matrix(1 0 0 1 796.502 102.8541)" class="st0 st1 st2">制霸华科</text>
<g id="地区">
	<polygon id="西十二" class="st3" points="209,837 280,810.5 294,870.4 222,895.4 	"/>
	<polygon id="西操" class="st3" points="191.6,763 265.1,736.7 280,810.5 209,837 	"/>
	<polygon id="电气楼" class="st3" points="166,662.8 243,635.1 265.1,736.7 191.6,763 	"/>
	<polygon id="紫菘" class="st3" points="179,713.7 101,711.7 91.6,736.2 44.9,783.3 51.2,813.2 85.8,800.6 90.7,822.6 
		196.1,783.8 	"/>
	<polygon id="西区宿舍" class="st3" points="145.4,578.9 226.6,551 287.2,548.3 287.2,650.3 246.7,652.2 243,635.1 166,662.8 
		155.3,619 	"/>
	<polygon id="西二食堂" class="st3" points="191.2,607.2 155.3,619 166,662.8 204,649.1 	"/>
	<polygon id="西一食堂" class="st3" points="235.8,591.9 243,635.1 204,649.1 191.2,607.2 	"/>
	<polygon id="百景园" class="st3" points="287.2,500.8 287.2,548.3 226.6,551 217.1,500.8 	"/>
	<polygon id="喻园" class="st3" points="287.2,366.5 655.7,369.2 655.7,500.8 287.2,500.8 	"/>
	<polygon id="青年园" class="st3" points="345.1,591.9 345.1,727.7 268.7,754.6 246.7,652.2 287.2,650.3 287.2,591.9 	"/>
	<rect id="集贸市场" x="376.7" y="451.3" class="st3" width="50.5" height="49.5"/>
	<rect id="集锦园" x="427.2" y="451.3" class="st3" width="41.3" height="24.8"/>
	<rect id="喻园食堂" x="427.2" y="476.1" class="st3" width="41.3" height="24.8"/>
	<rect id="百味小吃城" x="468.5" y="451.3" class="st3" width="48" height="49.5"/>
	<rect id="校医院" x="396.2" y="410.5" class="st3" width="107" height="40.8"/>
	<polygon id="喻家山" class="st3" points="252.2,365.7 655.7,369.2 839.5,369.2 855.1,270.2 252.2,270.2 	"/>
	<rect id="西边高层" x="217.1" y="366.5" class="st3" width="70.1" height="134.3"/>
	<polygon id="喻园小区" class="st3" points="818,500.8 655.7,500.8 655.7,369.2 839.5,369.2 	"/>
	<rect id="接待中心" x="287.2" y="500.8" class="st3" width="89.5" height="91.1"/>
	<polygon id="幼儿园" class="st3" points="427.2,548.9 376.7,548.3 376.7,500.8 427.2,501.3 	"/>
	<polygon id="小学" class="st3" points="468.5,548.9 468.5,500.8 427.2,501.3 427.2,548.9 	"/>
	<polygon id="管理学院" class="st3" points="547.5,548.3 547.5,500.8 468.5,500.8 468.5,548.9 	"/>
	<polygon id="绝望坡" class="st3" points="818,500.8 703.7,500.8 703.7,534 812.1,534 	"/>
	<polygon id="大活" class="st3" points="376.7,591.9 468.5,591.9 468.5,548.9 376.7,548.3 	"/>
	<polygon id="梧桐语" class="st3" points="547.5,591.9 547.5,548.3 468.5,548.9 468.5,591.9 	"/>
	<rect id="科技楼" x="345.1" y="591.9" class="st3" width="123.4" height="43"/>
	<polygon id="西体" class="st3" points="287.2,673.3 251.5,674.4 258.9,709.2 287.2,709.2 	"/>
	<polygon id="图书馆" class="st3" points="468.5,727.2 345.1,727.7 345.1,635 468.5,635 	"/>
	<polygon id="校史馆" class="st3" points="498.3,770.1 498.3,727 345.1,727.7 345.1,770.1 	"/>
	<rect id="南一楼" x="345.1" y="770.1" class="st3" width="153.2" height="50"/>
	<rect id="南四楼" x="345.1" y="820.1" class="st3" width="98.5" height="67.4"/>
	<polygon id="西五楼" class="st3" points="345.1,786.8 280,810.5 268.7,754.6 345.1,727.7 	"/>
	<polygon id="建规学院" class="st3" points="337.2,887.5 345.1,887.5 345.1,786.8 280,810.5 297.9,887.5 	"/>
	<rect id="游泳馆" x="443.6" y="820.1" class="st3" width="103.9" height="67.4"/>
	<polygon id="南区宿舍" class="st3" points="586.3,727.7 586.3,820.1 498.3,820.1 498.3,727 	"/>
	<rect id="光谷体育馆" x="547.5" y="820.1" class="st3" width="77.5" height="67.4"/>
	<polygon id="新闻学院" class="st3" points="547.5,679.3 547.5,727.4 468.5,727.2 468.5,679.3 	"/>
	<rect id="教科院" x="547.5" y="691.3" class="st3" width="57.9" height="36.2"/>
	<rect id="机械学院" x="468.5" y="591.9" class="st3" width="136.9" height="87.3"/>
	<rect id="东五楼" x="547.5" y="658" class="st3" width="57.9" height="33.3"/>
	<polygon id="东区宿舍" class="st3" points="703.7,635 605.4,635 605.4,727.4 703.7,727 	"/>
	<polygon id="东一食堂" class="st3" points="667,662.8 667,727 605.4,727.4 605.4,662.8 	"/>
	<polygon id="东三食堂" class="st3" points="636.2,695.1 667,695.1 667,727 636.2,727.4 	"/>
	<rect id="东四食堂" x="636.2" y="662.8" class="st3" width="30.8" height="32.3"/>
	<rect id="中操" x="586.3" y="727.7" class="st3" width="72.3" height="92.5"/>
	<polygon id="沁苑" class="st3" points="703.7,820.1 703.7,727 658.5,727.7 658.5,820.1 	"/>
	<polygon id="居民区_1_" class="st3" points="703.7,635 605.4,635 605.4,591.9 547.5,591.9 547.5,500.8 703.7,500.8 	"/>
	<polygon id="附中" class="st3" points="839.5,369.2 898.6,369.2 898.6,451.3 828,451.3 	"/>
	<polygon id="驾校" class="st3" points="898.6,500.8 898.6,451.3 828,451.3 817,500.8 	"/>
	<polygon id="东九楼" class="st3" points="898.6,573.4 898.6,500.8 817,500.8 812.1,534 812.1,573.4 	"/>
	<rect id="国光" x="812.1" y="573.4" class="st3" width="86.5" height="96.7"/>
	<rect id="启明学院" x="812.1" y="670.1" class="st3" width="86.5" height="78.5"/>
	<rect id="韵苑" x="898.6" y="369.2" class="st3" width="134.4" height="131.7"/>
	<rect id="韵苑食堂" x="898.6" y="451.3" class="st3" width="55.2" height="49.5"/>
	<rect id="爱因斯坦广场" x="988.5" y="451.3" class="st3" width="44.5" height="49.5"/>
	<polygon id="东操" class="st3" points="1033,573.4 1033,500.8 988.5,500.8 898.6,500.8 898.6,573.4 988.5,573.4 	"/>
	<polygon id="韵苑体育馆" class="st3" points="988.5,534 988.5,500.8 1033,500.8 1033,573.4 988.5,573.4 	"/>
	<rect id="CBD" x="898.6" y="573.4" class="st3" width="55.2" height="175.1"/>
	<rect id="东十二楼" x="953.8" y="573.4" class="st3" width="79.2" height="48.3"/>
	<rect id="生科院" x="953.8" y="621.7" class="st3" width="79.2" height="48.3"/>
	<rect id="工创中心" x="1033" y="451.3" class="st3" width="47" height="122.1"/>
	<rect id="东区图书馆" x="953.8" y="670.1" class="st3" width="39.6" height="78.5"/>
	<polygon id="光电大楼" class="st3" points="993.4,887.5 993.4,670.1 1033,670.1 1070.9,887.5 	"/>
	<rect id="居民区" x="898.6" y="748.5" class="st3" width="94.8" height="139"/>
	<rect id="博士生公寓" x="605.4" y="567.9" class="st3" width="61.6" height="67.1"/>
	<polygon id="同济医学院" class="st3" points="110.9,131.1 181.1,62.4 313.9,124.5 320.2,164.8 215.6,210.6 	"/>
	<polygon id="网安基地" class="st3" points="430.2,196.5 574,196.5 574,73.5 425.1,90.3 394.5,151.5 	"/>
</g>

<g id="地名">	
	<text transform="matrix(1 0 0 1 923.25 822)" class="st1 st12">居民区</text>
	<text transform="matrix(1 0 0 1 1013.5 775.5568)"><tspan x="0" y="0" class="st1 st12">光</tspan><tspan x="0" y="17" class="st1 st12">电</tspan><tspan x="0" y="34" class="st1 st12">大</tspan><tspan x="0" y="51" class="st1 st12">楼</tspan></text>
	<text transform="matrix(1 0 0 1 112.5 767.1574)" class="st1 st11">紫菘</text>
	<text transform="matrix(1 0 0 1 166 630.5)"><tspan x="0" y="0" class="st1 st13">西二</tspan><tspan x="0" y="14.4" class="st1 st13">食堂</tspan></text>
	<text transform="matrix(1 0 0 1 207 618.5)"><tspan x="0" y="0" class="st1 st13">西一</tspan><tspan x="0" y="14.4" class="st1 st13">食堂</tspan></text>
	<text transform="matrix(1 0 0 1 196.1 580.5)" class="st1 st12">西区宿舍</text>
	<text transform="matrix(1 0 0 1 199.8333 703.3458)" class="st1 st14">西操</text>
	<text transform="matrix(1 0 0 1 205 790.5)" class="st1 st12">电气大楼</text>
	<text transform="matrix(1 0 0 1 219.5 859.336)" class="st1 st12">西十二楼</text>
	<text transform="matrix(1 0 0 1 266 688)"><tspan x="0" y="0" class="st1 st13">西</tspan><tspan x="0" y="14.4" class="st1 st13">体</tspan></text>
	<text transform="matrix(1 0 0 1 309 666)"><tspan x="0" y="0" class="st1 st12">青</tspan><tspan x="0" y="19.2" class="st1 st12">年</tspan><tspan x="0" y="38.4" class="st1 st12">园</tspan></text>
	<text transform="matrix(1 0 0 1 232 529.5)" class="st1 st15">百景园</text>
	<text transform="matrix(1 0 0 1 242.9998 408.5)"><tspan x="0" y="0" class="st1 st14">西</tspan><tspan x="0" y="20.4" class="st1 st14">边</tspan><tspan x="0" y="40.8" class="st1 st14">高</tspan><tspan x="0" y="61.2" class="st1 st14">层</tspan></text>
	<text transform="matrix(1 0 0 1 513.1667 327.5)" class="st1 st16">瑜家山</text>
	<text transform="matrix(1 0 0 1 429 433.6441)" class="st1 st13">校医院</text>
	<text transform="matrix(1 0 0 1 329 430)" class="st1 st17">喻</text>
	<text transform="matrix(1 0 0 1 567 430)" class="st1 st17">园</text>
	<text transform="matrix(1 0 0 1 390.5 473.5)"><tspan x="0" y="0" class="st1 st13">集贸</tspan><tspan x="0" y="14.4" class="st1 st13">市场</tspan></text>
	<text transform="matrix(1 0 0 1 432.5 467.25)" class="st1 st18">集锦园</text>
	<text transform="matrix(1 0 0 1 430.25 491.75)" class="st1 st19">喻园食堂</text>
	<text transform="matrix(1 0 0 1 474.75 473.5)"><tspan x="0" y="0" class="st1 st13">百味园</tspan><tspan x="0" y="14" class="st1 st13">小吃城</tspan></text>
	<text transform="matrix(1 0 0 1 297 551.0205)" class="st1 st20">接待中心</text>
	<text transform="matrix(1 0 0 1 278.5 775.5568)" class="st1 st15">水利学院</text>
	<text transform="matrix(1 0 0 1 292 842)" class="st1 st13">建规学院</text>
	<text transform="matrix(1 0 0 1 373 688)" class="st1 st21">图书馆</text>
	<text transform="matrix(1 0 0 1 698.333 443.6665)" class="st1 st16">喻园小区</text>
	<text transform="matrix(1 0 0 1 735.0003 521.6663)" class="st1 st20">绝望坡</text>
	<text transform="matrix(1 0 0 1 596.5 539)" class="st1 st20">居民区</text>
	<text transform="matrix(1 0 0 1 382.3333 529.5)" class="st1 st22">幼儿园</text>
	<text transform="matrix(1 0 0 1 435.0003 529.5)" class="st1 st22">小学</text>
	<text transform="matrix(1 0 0 1 376.6999 618.5)" class="st1 st20">科技楼</text>
	<text transform="matrix(1 0 0 1 407 567.8909)"><tspan x="0" y="0" class="st1 st13">大学生</tspan><tspan x="-6" y="14" class="st1 st13">活动中心</tspan></text>
	<text transform="matrix(1 0 0 1 474.75 529.5)" class="st1 st12">管理学院</text>
	<text transform="matrix(1 0 0 1 484.25 575)" class="st1 st12">梧桐语</text>
	<text transform="matrix(1 0 0 1 498.3 634.9695)" class="st1 st12">机械学院</text>
	<text transform="matrix(1 0 0 1 479 707.1632)" class="st1 st23">新闻学院</text>
	<text transform="matrix(1 0 0 1 555.5 678.9577)" class="st1 st23">东五楼</text>
	<text transform="matrix(1 0 0 1 555.5 713.4577)" class="st1 st23">教科院</text>
	<text transform="matrix(1 0 0 1 609.5 691.2189)"><tspan x="0" y="0" class="st1 st13">东一</tspan><tspan x="0" y="14" class="st1 st13">食堂</tspan></text>
	<text transform="matrix(1 0 0 1 640 684)" class="st1 st13">东四</text>
	<text transform="matrix(1 0 0 1 640 715)" class="st1 st13">东三</text>
	<text transform="matrix(1 0 0 1 615.2 599.0003)"><tspan x="0" y="0" class="st1 st23">博士生</tspan><tspan x="7" y="14" class="st1 st23">公寓</tspan></text>
	<text transform="matrix(1 0 0 1 626.55 652.6667)" class="st1 st23">东区宿舍</text>
	<text transform="matrix(1 0 0 1 397.7 753)" class="st1 st12">校史馆</text>
	<text transform="matrix(1 0 0 1 397.7 798.6663)" class="st1 st12">南一楼</text>
	<text transform="matrix(1 0 0 1 371.0334 858.3364)" class="st1 st12">南四楼</text>
	<text transform="matrix(1 0 0 1 471.5498 858.3369)" class="st1 st12">游泳馆</text>
	<text transform="matrix(1 0 0 1 570.2501 850.0034)"><tspan x="0" y="0" class="st1 st12">光谷</tspan><tspan x="-8" y="17" class="st1 st12">体育馆</tspan></text>
	<text transform="matrix(1 0 0 1 510.6668 777.667)" class="st1 st12">南区宿舍</text>
	<text transform="matrix(1 0 0 1 606.7831 777.6667)" class="st1 st12">中操</text>
	<text transform="matrix(1 0 0 1 673.1 770.1108)"><tspan x="0" y="0" class="st1 st12">沁</tspan><tspan x="0" y="17" class="st1 st12">苑</tspan></text>
	<text transform="matrix(1 0 0 1 851.5 416.25)" class="st1 st12">附中</text>
	<text transform="matrix(1 0 0 1 841.7807 481.5)" class="st1 st12">驾校</text>
	<text transform="matrix(1 0 0 1 831.3482 542.5)" class="st1 st12">东九楼</text>
	<text transform="matrix(1 0 0 1 838.25 625.75)" class="st1 st12">国光</text>
	<text transform="matrix(1 0 0 1 822 713.4577)" class="st1 st12">启明学院</text>
	<text transform="matrix(1 0 0 1 943.7982 416.3335)" class="st1 st24">韵苑</text>
	<text transform="matrix(1 0 0 1 913.2193 470.6668)"><tspan x="0" y="0" class="st1 st22">韵苑</tspan><tspan x="0" y="17" class="st1 st22">食堂</tspan></text>
	<text transform="matrix(1 0 0 1 992.7368 470.667)"><tspan x="0" y="0" class="st1 st19">爱因斯坦</tspan><tspan x="9" y="17" class="st1 st19">广场</tspan></text>
	<text transform="matrix(1 0 0 1 1048.5 491.75)"><tspan x="0" y="0" class="st1 st12">工</tspan><tspan x="0" y="17" class="st1 st12">创</tspan><tspan x="0" y="34" class="st1 st12">中</tspan><tspan x="0" y="51" class="st1 st12">心</tspan></text>
	<text transform="matrix(1 0 0 1 910.2193 656)"><tspan x="0" y="0" class="st1 st12">东边</tspan><tspan x="-0.5" y="17" class="st1 st12">CBD</tspan></text>
	<text transform="matrix(1 0 0 1 961.4211 602.3333)" class="st1 st12">东十二楼</text>
	<text transform="matrix(1 0 0 1 926.0088 542.5)" class="st1 st11">东操</text>
	<text transform="matrix(1 0 0 1 998.7368 530.5)"><tspan x="0" y="0" class="st1 st13">韵苑</tspan><tspan x="-6" y="17" class="st1 st13">体育馆</tspan></text>
	<text transform="matrix(1 0 0 1 969.4211 650)" class="st1 st12">生科院</text>
	<text transform="matrix(1 0 0 1 966 698)"><tspan x="0" y="0" class="st1 st12">图</tspan><tspan x="0" y="17" class="st1 st12">书</tspan><tspan x="0" y="34" class="st1 st12">馆</tspan></text>
	<text transform="matrix(1 0 0 1 153.7499 142.6698)" class="st1 st16">同济医学院</text>
	<text transform="matrix(1 0 0 1 447.7 145.5135)" class="st1 st16">网安基地</text>
</g>
<text id="分数" transform="matrix(1 0 0 1 796.502 184.8595)" class="st0 st1 st2">分数</text>
<g id="等级">
	<path class="st4" d="M44.9,315.5h81.4v33.9H44.9V315.5z"/>
	<path class="st5" d="M44.9,349.4h81.4v33.9H44.9V349.4z"/>
	<path class="st6" d="M44.9,383.3h81.4v33.9H44.9V383.3z"/>
	<path class="st7" d="M44.9,417.3h81.4v33.9H44.9V417.3z"/>
	<path class="st8" d="M44.9,451.2h81.4v33.9H44.9V451.2z"/>
	<path class="st9" d="M44.9,485.1h81.4V519H44.9V485.1z"/>
	<path class="st10" d="M44.9,313.5h81.4V519H44.9V313.5z"/>
	<text transform="matrix(1 0 0 1 59.9004 340.5)" class="st0 st1 st11">常住５</text>
	<text transform="matrix(1 0 0 1 59.9008 374)" class="st0 st1 st11">常去４</text>
	<text transform="matrix(1 0 0 1 59.9004 407)" class="st0 st1 st11">有时３</text>
	<text transform="matrix(1 0 0 1 59.9004 440)" class="st0 st1 st11">偶尔２</text>
	<text transform="matrix(1 0 0 1 59.9004 474.5)" class="st0 st1 st11">路过１</text>
	<text transform="matrix(1 0 0 1 55.4 508)" class="st0 st1 st11">没去过</text>
</g>
</svg>