<?xml version="1.0" encoding="utf-8"?>
<!-- Generator: Adobe Illustrator 26.1.0, SVG Export Plug-In . SVG Version: 6.00 Build 0)  -->
<svg version="1.1" id="图层_1" xmlns="http://www.w3.org/2000/svg" xmlns:xlink="http://www.w3.org/1999/xlink" x="0px" y="0px"
	 width="1134px" height="976px" viewBox="0 0 1134 976" style="enable-background:new 0 0 1134 976;" xml:space="preserve">
<g id="地区">
	
		<path id="黑龙江" style="fill-rule:evenodd;clip-rule:evenodd;fill:#FFFFFF;stroke:#000000;stroke-width:4;stroke-linecap:round;stroke-linejoin:round;" d="
		M1100,33v158H894V33H1100z"/>
	
		<path id="甘肃" style="fill-rule:evenodd;clip-rule:evenodd;fill:#FFFFFF;stroke:#000000;stroke-width:4;stroke-linecap:round;stroke-linejoin:round;" d="
		M585,191v371H351V191H585z"/>
	
		<path id="吉林" style="fill-rule:evenodd;clip-rule:evenodd;fill:#FFFFFF;stroke:#000000;stroke-width:4;stroke-linecap:round;stroke-linejoin:round;" d="
		M894,191v85h206v-85H894z"/>
	
		<path id="内蒙古" style="fill-rule:evenodd;clip-rule:evenodd;fill:#FFFFFF;stroke:#000000;stroke-width:4;stroke-linecap:round;stroke-linejoin:round;" d="
		M894,33H738v158H499v227h227l168-108V33z"/>
	
		<path id="山东" style="fill-rule:evenodd;clip-rule:evenodd;fill:#FFFFFF;stroke:#000000;stroke-width:4;stroke-linecap:round;stroke-linejoin:round;" d="
		M779,446v92h139v-92H779z"/>
	
		<path id="河北" style="fill-rule:evenodd;clip-rule:evenodd;fill:#FFFFFF;stroke:#000000;stroke-width:4;stroke-linecap:round;stroke-linejoin:round;" d="
		M861,310H726v180h117v-95h18V310z"/>
	
		<rect id="北京" x="763" y="336" style="fill-rule:evenodd;clip-rule:evenodd;fill:#FFFFFF;stroke:#000000;stroke-width:4;stroke-linecap:round;stroke-linejoin:round;" width="80" height="52"/>
	
		<path id="天津" style="fill-rule:evenodd;clip-rule:evenodd;fill:#FFFFFF;stroke:#000000;stroke-width:4;stroke-linecap:round;stroke-linejoin:round;" d="
		M763,388h80v43h-80V388z"/>
	
		<path id="西藏" style="fill-rule:evenodd;clip-rule:evenodd;fill:#FFFFFF;stroke:#000000;stroke-width:4;stroke-linecap:round;stroke-linejoin:round;" d="
		M389,770H35V466h354V770z"/>
	
		<path id="新疆" style="fill-rule:evenodd;clip-rule:evenodd;fill:#FFFFFF;stroke:#000000;stroke-width:4;stroke-linecap:round;stroke-linejoin:round;" d="
		M35,466V87h316v379H35z"/>
	
		<path id="河南" style="fill-rule:evenodd;clip-rule:evenodd;fill:#FFFFFF;stroke:#000000;stroke-width:4;stroke-linecap:round;stroke-linejoin:round;" d="
		M779,490H654v117h125V490z"/>
	
		<path id="安徽" style="fill-rule:evenodd;clip-rule:evenodd;fill:#FFFFFF;stroke:#000000;stroke-width:4;stroke-linecap:round;stroke-linejoin:round;" d="
		M852,538h-73v138h73V538z"/>
	
		<path id="山西" style="fill-rule:evenodd;clip-rule:evenodd;fill:#FFFFFF;stroke:#000000;stroke-width:4;stroke-linecap:round;stroke-linejoin:round;" d="
		M654,418v108h72V418H654z"/>
	
		<path id="湖北" style="fill-rule:evenodd;clip-rule:evenodd;fill:#FFFFFF;stroke:#000000;stroke-width:4;stroke-linecap:round;stroke-linejoin:round;" d="
		M779,688v-81H654v81H779z"/>
	
		<path id="青海" style="fill-rule:evenodd;clip-rule:evenodd;fill:#FFFFFF;stroke:#000000;stroke-width:4;stroke-linecap:round;stroke-linejoin:round;" d="
		M442,626V395H228v231H442z"/>
	
		<path id="辽宁" style="fill-rule:evenodd;clip-rule:evenodd;fill:#FFFFFF;stroke:#000000;stroke-width:4;stroke-linecap:round;stroke-linejoin:round;" d="
		M861,276v119h154V276H861z"/>
	
		<path id="广东" style="fill-rule:evenodd;clip-rule:evenodd;fill:#FFFFFF;stroke:#000000;stroke-width:4;stroke-linecap:round;stroke-linejoin:round;" d="
		M823,788H679v81h144V788z"/>
	
		<path id="江苏" style="fill-rule:evenodd;clip-rule:evenodd;fill:#FFFFFF;stroke:#000000;stroke-width:4;stroke-linecap:round;stroke-linejoin:round;" d="
		M899,538v87h-62v-87H899z"/>
	
		<path id="江西" style="fill-rule:evenodd;clip-rule:evenodd;fill:#FFFFFF;stroke:#000000;stroke-width:4;stroke-linecap:round;stroke-linejoin:round;" d="
		M852,806V676H749v130H852z"/>
	
		<path id="浙江" style="fill-rule:evenodd;clip-rule:evenodd;fill:#FFFFFF;stroke:#000000;stroke-width:4;stroke-linecap:round;stroke-linejoin:round;" d="
		M852,625l74,1v107h-74V625z"/>
	
		<path id="福建" style="fill-rule:evenodd;clip-rule:evenodd;fill:#FFFFFF;stroke:#000000;stroke-width:4;stroke-linecap:round;stroke-linejoin:round;" d="
		M823,733v107h73V733H823z"/>
	
		<rect id="上海" x="882" y="602" style="fill-rule:evenodd;clip-rule:evenodd;fill:#FFFFFF;stroke:#000000;stroke-width:4;stroke-linecap:round;stroke-linejoin:round;" width="72" height="47"/>
	
		<path id="陕西" style="fill-rule:evenodd;clip-rule:evenodd;fill:#FFFFFF;stroke:#000000;stroke-width:4;stroke-linecap:round;stroke-linejoin:round;" d="
		M585,653h69V418h-69V653z"/>
	
		<path id="湖南" style="fill-rule:evenodd;clip-rule:evenodd;fill:#FFFFFF;stroke:#000000;stroke-width:4;stroke-linecap:round;stroke-linejoin:round;" d="
		M654,688h95v100h-95V688z"/>
	
		<path id="广西" style="fill-rule:evenodd;clip-rule:evenodd;fill:#FFFFFF;stroke:#000000;stroke-width:4;stroke-linecap:round;stroke-linejoin:round;" d="
		M679,788H537v81h142V788z"/>
	
		<rect id="香港" x="758" y="856" style="fill-rule:evenodd;clip-rule:evenodd;fill:#FFFFFF;stroke:#000000;stroke-width:4;stroke-linecap:round;stroke-linejoin:round;" width="42" height="33"/>
	
		<rect id="澳门" x="701" y="856" style="fill-rule:evenodd;clip-rule:evenodd;fill:#FFFFFF;stroke:#000000;stroke-width:4;stroke-linecap:round;stroke-linejoin:round;" width="45" height="33"/>
	
		<path id="贵州" style="fill-rule:evenodd;clip-rule:evenodd;fill:#FFFFFF;stroke:#000000;stroke-width:4;stroke-linecap:round;stroke-linejoin:round;" d="
		M654,709H537v79h117V709z"/>
	
		<rect id="重庆" x="565" y="653" style="fill-rule:evenodd;clip-rule:evenodd;fill:#FFFFFF;stroke:#000000;stroke-width:4;stroke-linecap:round;stroke-linejoin:round;" width="89" height="56"/>
	
		<path id="四川" style="fill-rule:evenodd;clip-rule:evenodd;fill:#FFFFFF;stroke:#000000;stroke-width:4;stroke-linecap:round;stroke-linejoin:round;" d="
		M565,737v-84h20v-91H389v175H565z"/>
	
		<path id="云南" style="fill-rule:evenodd;clip-rule:evenodd;fill:#FFFFFF;stroke:#000000;stroke-width:4;stroke-linecap:round;stroke-linejoin:round;" d="
		M537,737H389v115h148V737z"/>
	
		<path id="宁夏" style="fill-rule:evenodd;clip-rule:evenodd;fill:#FFFFFF;stroke:#000000;stroke-width:4;stroke-linecap:round;stroke-linejoin:round;" d="
		M585,418h-86v96h86V418z"/>
	
		<rect id="台湾" x="918" y="788" style="fill-rule:evenodd;clip-rule:evenodd;fill:#FFFFFF;stroke:#000000;stroke-width:4;stroke-linecap:round;stroke-linejoin:round;" width="45" height="87"/>
	
		<rect id="海南" x="615" y="897" style="fill-rule:evenodd;clip-rule:evenodd;fill:#FFFFFF;stroke:#000000;stroke-width:4;stroke-linecap:round;stroke-linejoin:round;" width="78" height="46"/>
</g>
<g id="地名">
	<text x="659" y="266">内蒙古</text>
	<text x="951" y="123">黑龙江</text>
	<text x="966" y="242">吉林</text>
	<text x="906" y="347">辽宁</text>
	<text x="773" y="371">北京</text>
	<text x="773" y="419">天津</text>
	<text x="753" y="469">河北</text>
	<text x="861" y="488">山</text>
	<text x="861" y="518">东</text>
	<text x="687" y="579">河南</text>
	<text x="684" y="658">湖北</text>
	<text x="684" y="735">湖</text>
	<text x="684" y="765">南</text>
	<text x="846" y="575">江</text>
	<text x="846" y="605">苏</text>
	<text x="888" y="635">上海</text>
	<text x="872" y="685">浙</text>
	<text x="872" y="715">江</text>
	<text x="844" y="783">福</text>
	<text x="844" y="813">建</text>
	<text x="925" y="826">台</text>
	<text x="925" y="856">湾</text>
	<text x="625" y="930">海南</text>
	<text x="721" y="842">广东</text>
	<text x="772" y="736">江</text>
	<text x="772" y="766">西</text>
	<text x="793" y="603">安</text>
	<text x="793" y="633">徽</text>
	<text x="675" y="466">山</text>
	<text x="675" y="496">西</text>
	<text x="604" y="536">陕</text>
	<text x="604" y="566">西</text>
	<text x="527" y="460">宁</text>
	<text x="527" y="490">夏</text>
	<text x="409" y="304">甘</text>
	<text x="409" y="334">肃</text>
	<text x="301" y="520">青海</text>
	<text x="453" y="660">四川</text>
	<text x="432" y="805">云南</text>
	<text x="579" y="839">广西</text>
	<text x="568" y="759">贵州</text>
	<text x="579" y="691">重庆</text>
	<text x="104" y="639">西藏</text>
	<text x="163" y="288">新疆</text>
</g>
<text transform="matrix(1 0 0 1 424.9963 119.0002)" style="fill:#111111; font-family:'Tensentype-JiaLiDaYuanJF'; font-size:60px;">中国制霸</text>
<text id="分数" transform="matrix(1 0 0 1 35 923.5577)" style="fill:#111111; font-family:'Tensentype-JiaLiDaYuanJF'; font-size:60px;">1分</text>
<g id="等级">
	<rect x="983" y="655" style="fill-rule:evenodd;clip-rule:evenodd;fill:#88AEFF;" width="120" height="50"/>
	<rect x="983" y="605" style="fill-rule:evenodd;clip-rule:evenodd;fill:#A8FFBE;" width="120" height="50"/>
	<rect x="983" y="555" style="fill-rule:evenodd;clip-rule:evenodd;fill:#FFE57E;" width="120" height="50"/>
	<rect x="983" y="505" style="fill-rule:evenodd;clip-rule:evenodd;fill:#FFB57E;" width="120" height="50"/>
	<rect x="983" y="455" style="fill-rule:evenodd;clip-rule:evenodd;fill:#FF7E7E;" width="120" height="50"/>
	
		<rect x="983" y="455" style="fill-rule:evenodd;clip-rule:evenodd;fill:none;stroke:#000000;stroke-width:4;stroke-linecap:round;stroke-linejoin:round;stroke-miterlimit:10;" width="120" height="250"/>
	<text transform="matrix(1 0 0 1 998.5709 489.6172)" style="font-family:'Tensentype-JiaLiDaYuanJ'; font-size:30px;">5 居住</text>
	<text transform="matrix(1 0 0 1 998.6002 540.0001)"><tspan x="0" y="0" style="font-family:'Tensentype-JiaLiDaYuanJ'; font-size:30px;">4 住宿</tspan><tspan x="0" y="50" style="font-family:'Tensentype-JiaLiDaYuanJ'; font-size:30px;">3 游玩</tspan><tspan x="0" y="100" style="font-family:'Tensentype-JiaLiDaYuanJ'; font-size:30px;">2 换乘</tspan><tspan x="0" y="150" style="font-family:'Tensentype-JiaLiDaYuanJ'; font-size:30px;">1 路过</tspan></text>
</g>
</svg>
