<?xml version="1.0" encoding="utf-8"?>
<!-- Generator: Adobe Illustrator 26.1.0, SVG Export Plug-In . SVG Version: 6.00 Build 0)  -->
<svg version="1.1" id="图层_1" xmlns="http://www.w3.org/2000/svg" xmlns:xlink="http://www.w3.org/1999/xlink" x="0px" y="0px"
	 width="1134px" height="976px" viewBox="0 0 1134 976" style="enable-background:new 0 0 1134 976;" xml:space="preserve">
<g id="地区">
	
		<path id="黑龙江" style="fill-rule:evenodd;clip-rule:evenodd;fill:#FFFFFF;stroke:#000000;stroke-width:4;stroke-linecap:round;stroke-linejoin:round;" d="
		M1100,33v158H894V33H1100z"/>
	
		<path id="甘肃" style="fill-rule:evenodd;clip-rule:evenodd;fill:#FFFFFF;stroke:#000000;stroke-width:4;stroke-linecap:round;stroke-linejoin:round;" d="
		M585,191v371H351V191H585z"/>
	
		<path id="吉林" style="fill-rule:evenodd;clip-rule:evenodd;fill:#FFFFFF;stroke:#000000;stroke-width:4;stroke-linecap:round;stroke-linejoin:round;" d="
		M894,191v85h206v-85H894z"/>
	
		<path id="内蒙古" style="fill-rule:evenodd;clip-rule:evenodd;fill:#FFFFFF;stroke:#000000;stroke-width:4;stroke-linecap:round;stroke-linejoin:round;" d="
		M894,33H738v158H499v227h227l168-108V33z"/>
	
		<path id="山东" style="fill-rule:evenodd;clip-rule:evenodd;fill:#FFFFFF;stroke:#000000;stroke-width:4;stroke-linecap:round;stroke-linejoin:round;" d="
		M779,446v92h139v-92H779z"/>
	
		<path id="河北" style="fill-rule:evenodd;clip-rule:evenodd;fill:#FFFFFF;stroke:#000000;stroke-width:4;stroke-linecap:round;stroke-linejoin:round;" d="
		M861,310H726v180h117v-95h18V310z"/>
	
		<rect id="北京" x="763" y="336" style="fill-rule:evenodd;clip-rule:evenodd;fill:#FFFFFF;stroke:#000000;stroke-width:4;stroke-linecap:round;stroke-linejoin:round;" width="80" height="52"/>
	
		<path id="天津" style="fill-rule:evenodd;clip-rule:evenodd;fill:#FFFFFF;stroke:#000000;stroke-width:4;stroke-linecap:round;stroke-linejoin:round;" d="
		M763,388h80v43h-80V388z"/>
	
		<path id="西藏" style="fill-rule:evenodd;clip-rule:evenodd;fill:#FFFFFF;stroke:#000000;stroke-width:4;stroke-linecap:round;stroke-linejoin:round;" d="
		M389,770H35V466h354V770z"/>
	
		<path id="新疆" style="fill-rule:evenodd;clip-rule:evenodd;fill:#FFFFFF;stroke:#000000;stroke-width:4;stroke-linecap:round;stroke-linejoin:round;" d="
		M35,466V87h316v379H35z"/>
	
		<path id="河南" style="fill-rule:evenodd;clip-rule:evenodd;fill:#FFFFFF;stroke:#000000;stroke-width:4;stroke-linecap:round;stroke-linejoin:round;" d="
		M779,490H654v117h125V490z"/>
	
		<path id="安徽" style="fill-rule:evenodd;clip-rule:evenodd;fill:#FFFFFF;stroke:#000000;stroke-width:4;stroke-linecap:round;stroke-linejoin:round;" d="
		M852,538h-73v138h73V538z"/>
	
		<path id="山西" style="fill-rule:evenodd;clip-rule:evenodd;fill:#FFFFFF;stroke:#000000;stroke-width:4;stroke-linecap:round;stroke-linejoin:round;" d="
		M654,418v108h72V418H654z"/>
	
		<path id="湖北" style="fill-rule:evenodd;clip-rule:evenodd;fill:#FFFFFF;stroke:#000000;stroke-width:4;stroke-linecap:round;stroke-linejoin:round;" d="
		M779,688v-81H654v81H779z"/>
	
		<path id="青海" style="fill-rule:evenodd;clip-rule:evenodd;fill:#FFFFFF;stroke:#000000;stroke-width:4;stroke-linecap:round;stroke-linejoin:round;" d="
		M442,626V395H228v231H442z"/>
	
		<path id="辽宁" style="fill-rule:evenodd;clip-rule:evenodd;fill:#FFFFFF;stroke:#000000;stroke-width:4;stroke-linecap:round;stroke-linejoin:round;" d="
		M861,276v119h154V276H861z"/>
	
		<path id="广东" style="fill-rule:evenodd;clip-rule:evenodd;fill:#FFFFFF;stroke:#000000;stroke-width:4;stroke-linecap:round;stroke-linejoin:round;" d="
		M823,788H679v81h144V788z"/>
	
		<path id="江苏" style="fill-rule:evenodd;clip-rule:evenodd;fill:#FFFFFF;stroke:#000000;stroke-width:4;stroke-linecap:round;stroke-linejoin:round;" d="
		M899,538v87h-62v-87H899z"/>
	
		<path id="江西" style="fill-rule:evenodd;clip-rule:evenodd;fill:#FFFFFF;stroke:#000000;stroke-width:4;stroke-linecap:round;stroke-linejoin:round;" d="
		M852,806V676H749v130H852z"/>
	
		<path id="浙江" style="fill-rule:evenodd;clip-rule:evenodd;fill:#FFFFFF;stroke:#000000;stroke-width:4;stroke-linecap:round;stroke-linejoin:round;" d="
		M852,625l74,1v107h-74V625z"/>
	
		<path id="福建" style="fill-rule:evenodd;clip-rule:evenodd;fill:#FFFFFF;stroke:#000000;stroke-width:4;stroke-linecap:round;stroke-linejoin:round;" d="
		M823,733v107h73V733H823z"/>
	
		<rect id="上海" x="882" y="602" style="fill-rule:evenodd;clip-rule:evenodd;fill:#FFFFFF;stroke:#000000;stroke-width:4;stroke-linecap:round;stroke-linejoin:round;" width="72" height="47"/>
	
		<path id="陕西" style="fill-rule:evenodd;clip-rule:evenodd;fill:#FFFFFF;stroke:#000000;stroke-width:4;stroke-linecap:round;stroke-linejoin:round;" d="
		M585,653h69V418h-69V653z"/>
	
		<path id="湖南" style="fill-rule:evenodd;clip-rule:evenodd;fill:#FFFFFF;stroke:#000000;stroke-width:4;stroke-linecap:round;stroke-linejoin:round;" d="
		M654,688h95v100h-95V688z"/>
	
		<path id="广西" style="fill-rule:evenodd;clip-rule:evenodd;fill:#FFFFFF;stroke:#000000;stroke-width:4;stroke-linecap:round;stroke-linejoin:round;" d="
		M679,788H537v81h142V788z"/>
	
		<rect id="香港" x="758" y="856" style="fill-rule:evenodd;clip-rule:evenodd;fill:#FFFFFF;stroke:#000000;stroke-width:4;stroke-linecap:round;stroke-linejoin:round;" width="42" height="33"/>
	
		<rect id="澳门" x="701" y="856" style="fill-rule:evenodd;clip-rule:evenodd;fill:#FFFFFF;stroke:#000000;stroke-width:4;stroke-linecap:round;stroke-linejoin:round;" width="45" height="33"/>
	
		<path id="贵州" style="fill-rule:evenodd;clip-rule:evenodd;fill:#FFFFFF;stroke:#000000;stroke-width:4;stroke-linecap:round;stroke-linejoin:round;" d="
		M654,709H537v79h117V709z"/>
	
		<rect id="重庆" x="565" y="653" style="fill-rule:evenodd;clip-rule:evenodd;fill:#FFFFFF;stroke:#000000;stroke-width:4;stroke-linecap:round;stroke-linejoin:round;" width="89" height="56"/>
	
		<path id="四川" style="fill-rule:evenodd;clip-rule:evenodd;fill:#FFFFFF;stroke:#000000;stroke-width:4;stroke-linecap:round;stroke-linejoin:round;" d="
		M565,737v-84h20v-91H389v175H565z"/>
	
		<path id="云南" style="fill-rule:evenodd;clip-rule:evenodd;fill:#FFFFFF;stroke:#000000;stroke-width:4;stroke-linecap:round;stroke-linejoin:round;" d="
		M537,737H389v115h148V737z"/>
	
		<path id="宁夏" style="fill-rule:evenodd;clip-rule:evenodd;fill:#FFFFFF;stroke:#000000;stroke-width:4;stroke-linecap:round;stroke-linejoin:round;" d="
		M585,418h-86v96h86V418z"/>
	
		<rect id="台湾" x="918" y="788" style="fill-rule:evenodd;clip-rule:evenodd;fill:#FFFFFF;stroke:#000000;stroke-width:4;stroke-linecap:round;stroke-linejoin:round;" width="45" height="87"/>
	
		<rect id="海南" x="615" y="897" style="fill-rule:evenodd;clip-rule:evenodd;fill:#FFFFFF;stroke:#000000;stroke-width:4;stroke-linecap:round;stroke-linejoin:round;" width="78" height="46"/>
	
		<polyline id="曾母暗沙" style="fill-rule:evenodd;clip-rule:evenodd;fill:#FFFFFF;stroke:#000000;stroke-width:4;stroke-linecap:round;stroke-linejoin:round;" points="
		827,941 827,897 908,897 908,941"/>
</g>
<g id="地名">
	<text transform="matrix(1 0 0 1 659 266)" style="fill:#111111; font-family:'Tensentype-JiaLiDaYuanJF'; font-size:30px;">内蒙古</text>
	<text transform="matrix(1 0 0 1 951 123)" style="fill:#111111; font-family:'Tensentype-JiaLiDaYuanJF'; font-size:30px;">黑龙江</text>
	<text transform="matrix(1 0 0 1 966 242)" style="fill:#111111; font-family:'Tensentype-JiaLiDaYuanJF'; font-size:30px;">吉林</text>
	<text transform="matrix(1 0 0 1 906 347)" style="fill:#111111; font-family:'Tensentype-JiaLiDaYuanJF'; font-size:30px;">辽宁</text>
	<text transform="matrix(1 0 0 1 773 371)" style="fill:#111111; font-family:'Tensentype-JiaLiDaYuanJF'; font-size:30px;">北京</text>
	<text transform="matrix(1 0 0 1 773 419)" style="fill:#111111; font-family:'Tensentype-JiaLiDaYuanJF'; font-size:30px;">天津</text>
	<text transform="matrix(1 0 0 1 753 469)" style="fill:#111111; font-family:'Tensentype-JiaLiDaYuanJF'; font-size:30px;">河北</text>
	<text transform="matrix(1 0 0 1 861 488)" style="fill:#111111; font-family:'Tensentype-JiaLiDaYuanJF'; font-size:30px;">山</text>
	<text transform="matrix(1 0 0 1 861 518)" style="fill:#111111; font-family:'Tensentype-JiaLiDaYuanJF'; font-size:30px;">东</text>
	<text transform="matrix(1 0 0 1 687 579)" style="fill:#111111; font-family:'Tensentype-JiaLiDaYuanJF'; font-size:30px;">河南</text>
	<text transform="matrix(1 0 0 1 684 658)" style="fill:#111111; font-family:'Tensentype-JiaLiDaYuanJF'; font-size:30px;">湖北</text>
	<text transform="matrix(1 0 0 1 684 735)" style="fill:#111111; font-family:'Tensentype-JiaLiDaYuanJF'; font-size:30px;">湖</text>
	<text transform="matrix(1 0 0 1 684 765)" style="fill:#111111; font-family:'Tensentype-JiaLiDaYuanJF'; font-size:30px;">南</text>
	<text transform="matrix(1 0 0 1 846 575)" style="fill:#111111; font-family:'Tensentype-JiaLiDaYuanJF'; font-size:30px;">江</text>
	<text transform="matrix(1 0 0 1 846 605)" style="fill:#111111; font-family:'Tensentype-JiaLiDaYuanJF'; font-size:30px;">苏</text>
	<text transform="matrix(1 0 0 1 888 635)" style="fill:#111111; font-family:'Tensentype-JiaLiDaYuanJF'; font-size:30px;">上海</text>
	<text transform="matrix(1 0 0 1 872 685)" style="fill:#111111; font-family:'Tensentype-JiaLiDaYuanJF'; font-size:30px;">浙</text>
	<text transform="matrix(1 0 0 1 872 715)" style="fill:#111111; font-family:'Tensentype-JiaLiDaYuanJF'; font-size:30px;">江</text>
	<text transform="matrix(1 0 0 1 844 783)" style="fill:#111111; font-family:'Tensentype-JiaLiDaYuanJF'; font-size:30px;">福</text>
	<text transform="matrix(1 0 0 1 844 813)" style="fill:#111111; font-family:'Tensentype-JiaLiDaYuanJF'; font-size:30px;">建</text>
	<text transform="matrix(1 0 0 1 925 826)" style="fill:#111111; font-family:'Tensentype-JiaLiDaYuanJF'; font-size:30px;">台</text>
	<text transform="matrix(1 0 0 1 925 856)" style="fill:#111111; font-family:'Tensentype-JiaLiDaYuanJF'; font-size:30px;">湾</text>
	<text transform="matrix(1 0 0 1 625 930)" style="fill:#111111; font-family:'Tensentype-JiaLiDaYuanJF'; font-size:30px;">海南</text>
	<text transform="matrix(1 0 0 1 721 842)" style="fill:#111111; font-family:'Tensentype-JiaLiDaYuanJF'; font-size:30px;">广东</text>
	<text transform="matrix(1 0 0 1 772 736)" style="fill:#111111; font-family:'Tensentype-JiaLiDaYuanJF'; font-size:30px;">江</text>
	<text transform="matrix(1 0 0 1 772 766)" style="fill:#111111; font-family:'Tensentype-JiaLiDaYuanJF'; font-size:30px;">西</text>
	<text transform="matrix(1 0 0 1 793 603)" style="fill:#111111; font-family:'Tensentype-JiaLiDaYuanJF'; font-size:30px;">安</text>
	<text transform="matrix(1 0 0 1 793 633)" style="fill:#111111; font-family:'Tensentype-JiaLiDaYuanJF'; font-size:30px;">徽</text>
	<text transform="matrix(1 0 0 1 675 466)" style="fill:#111111; font-family:'Tensentype-JiaLiDaYuanJF'; font-size:30px;">山</text>
	<text transform="matrix(1 0 0 1 675 496)" style="fill:#111111; font-family:'Tensentype-JiaLiDaYuanJF'; font-size:30px;">西</text>
	<text transform="matrix(1 0 0 1 604 536)" style="fill:#111111; font-family:'Tensentype-JiaLiDaYuanJF'; font-size:30px;">陕</text>
	<text transform="matrix(1 0 0 1 604 566)" style="fill:#111111; font-family:'Tensentype-JiaLiDaYuanJF'; font-size:30px;">西</text>
	<text transform="matrix(1 0 0 1 527 460)" style="fill:#111111; font-family:'Tensentype-JiaLiDaYuanJF'; font-size:30px;">宁</text>
	<text transform="matrix(1 0 0 1 527 490)" style="fill:#111111; font-family:'Tensentype-JiaLiDaYuanJF'; font-size:30px;">夏</text>
	<text transform="matrix(1 0 0 1 409 304)" style="fill:#111111; font-family:'Tensentype-JiaLiDaYuanJF'; font-size:30px;">甘</text>
	<text transform="matrix(1 0 0 1 409 334)" style="fill:#111111; font-family:'Tensentype-JiaLiDaYuanJF'; font-size:30px;">肃</text>
	<text transform="matrix(1 0 0 1 301 520)" style="fill:#111111; font-family:'Tensentype-JiaLiDaYuanJF'; font-size:30px;">青海</text>
	<text transform="matrix(1 0 0 1 453 660)" style="fill:#111111; font-family:'Tensentype-JiaLiDaYuanJF'; font-size:30px;">四川</text>
	<text transform="matrix(1 0 0 1 432 805)" style="fill:#111111; font-family:'Tensentype-JiaLiDaYuanJF'; font-size:30px;">云南</text>
	<text transform="matrix(1 0 0 1 579 839)" style="fill:#111111; font-family:'Tensentype-JiaLiDaYuanJF'; font-size:30px;">广西</text>
	<text transform="matrix(1 0 0 1 568 759)" style="fill:#111111; font-family:'Tensentype-JiaLiDaYuanJF'; font-size:30px;">贵州</text>
	<text transform="matrix(1 0 0 1 579 691)" style="fill:#111111; font-family:'Tensentype-JiaLiDaYuanJF'; font-size:30px;">重庆</text>
	<text transform="matrix(1 0 0 1 104 639)" style="fill:#111111; font-family:'Tensentype-JiaLiDaYuanJF'; font-size:30px;">西藏</text>
	<text transform="matrix(1 0 0 1 163 288)" style="fill:#111111; font-family:'Tensentype-JiaLiDaYuanJF'; font-size:30px;">新疆</text>
</g>
<text transform="matrix(1 0 0 1 425 119)" style="fill:#111111; font-family:'Tensentype-JiaLiDaYuanJF'; font-size:60px;">中国制霸</text>
<text id="神奇海螺" transform="matrix(1 0 0 1 37 937)" style="fill:#111111; font-family:'Tensentype-JiaLiDaYuanJF'; font-size:29.4198px;">神奇海螺试验场</text>
<text id="分数" transform="matrix(1 0 0 1 35 883.5577)" style="fill:#111111; font-family:'Tensentype-JiaLiDaYuanJF'; font-size:60px;">分数</text>
<g id="等级">
	<rect x="983" y="655" style="fill-rule:evenodd;clip-rule:evenodd;fill:#88AEFF;" width="120" height="50"/>
	<rect x="983" y="605" style="fill-rule:evenodd;clip-rule:evenodd;fill:#A8FFBE;" width="120" height="50"/>
	<rect x="983" y="555" style="fill-rule:evenodd;clip-rule:evenodd;fill:#FFE57E;" width="120" height="50"/>
	<rect x="983" y="505" style="fill-rule:evenodd;clip-rule:evenodd;fill:#FFB57E;" width="120" height="50"/>
	<rect x="983" y="455" style="fill-rule:evenodd;clip-rule:evenodd;fill:#FF7E7E;" width="120" height="50"/>
	
		<rect x="983" y="455" style="fill:none;stroke:#000000;stroke-width:4;stroke-linecap:round;stroke-linejoin:round;stroke-miterlimit:10;" width="120" height="250"/>
	<text transform="matrix(1 0 0 1 998.5709 489.6172)" style="font-family:'Tensentype-JiaLiDaYuanJ'; font-size:30px;">5 居住</text>
	<text transform="matrix(1 0 0 1 998.6002 540.0001)" style="font-family:'Tensentype-JiaLiDaYuanJ'; font-size:30px;">4 游玩</text>
	<text transform="matrix(1 0 0 1 998.6002 590.0001)" style="font-family:'Tensentype-JiaLiDaYuanJ'; font-size:30px;">3 出差</text>
	<text transform="matrix(1 0 0 1 998.6002 640.0001)" style="font-family:'Tensentype-JiaLiDaYuanJ'; font-size:30px;">2 换乘</text>
	<text transform="matrix(1 0 0 1 998.6002 690.0001)" style="font-family:'Tensentype-JiaLiDaYuanJ'; font-size:30px;">1 路过</text>
</g>
</svg>
